<?xml version="1.0" encoding="utf-8"?>
<!-- Generator: Adobe Illustrator 16.2.0, SVG Export Plug-In . SVG Version: 6.00 Build 0)  -->
<!DOCTYPE svg PUBLIC "-//W3C//DTD SVG 1.1//EN" "http://www.w3.org/Graphics/SVG/1.1/DTD/svg11.dtd">
<svg version="1.1" id="Слой_1" xmlns="http://www.w3.org/2000/svg" xmlns:xlink="http://www.w3.org/1999/xlink" x="0px" y="0px"
	 width="511px" height="511px" viewBox="0 0 511 511" enable-background="new 0 0 511 511" xml:space="preserve">
<g>
	<path fill="#CCCCD1" d="M66.304,286.896c-0.726-4.253-4.765-7.122-9.01-6.39c-4.25,0.725-7.111,4.756-6.39,9.01
		c7.493,44.055,28.678,83.605,61.263,114.374c1.603,1.513,3.677,2.218,5.719,2.124c1.954-0.089,3.876-0.908,5.322-2.439
		c2.959-3.135,2.818-8.078-0.316-11.041C92.791,364.111,73.22,327.582,66.304,286.896z"/>
	<path fill="#CCCCD1" d="M55.891,264.942c0.085,0,0.175-0.004,0.261-0.008c4.191-0.19,7.501-3.673,7.45-7.895
		c-0.503-41.294,12.18-80.744,36.675-114.093c2.554-3.474,1.805-8.362-1.669-10.916c-3.478-2.554-8.362-1.805-10.92,1.672
		c-26.519,36.102-40.245,78.814-39.704,123.527C48.038,261.543,51.574,264.993,55.891,264.942z"/>
	<path fill="#CCCCD1" d="M234.089,58.577c-0.577-4.273-4.507-7.259-8.784-6.694c-44.327,5.984-84.584,25.793-116.425,57.275
		c-3.063,3.033-3.095,7.977-0.062,11.044c1.617,1.634,3.781,2.406,5.91,2.308c1.863-0.082,3.703-0.831,5.134-2.246
		c29.408-29.08,66.593-47.376,107.532-52.904C231.667,66.783,234.665,62.85,234.089,58.577z"/>
	<path fill="#CCCCD1" d="M403.554,116.031c-2.924-3.169-7.863-3.365-11.033-0.44c-3.17,2.924-3.368,7.863-0.44,11.033
		c47.415,51.364,48.14,107.231,49.591,111.204c-0.714,4.132,8.537,59.403-28.792,118.311c-2.308,3.642-1.224,8.469,2.417,10.776
		c1.404,0.889,2.986,1.274,4.53,1.204c2.46-0.113,4.827-1.383,6.246-3.621C474.981,287.313,467.269,185.044,403.554,116.031z"/>
	<path fill="#CCCCD1" d="M394.895,380.111c-27.392,31.08-63.224,51.902-103.621,60.211c-4.226,0.869-6.947,4.998-6.078,9.224
		c0.784,3.813,4.227,6.402,7.996,6.23c0.405-0.02,0.815-0.07,1.229-0.156c43.746-8.998,82.541-31.536,112.19-65.181
		c2.854-3.236,2.542-8.172-0.694-11.025C402.681,376.568,397.745,376.876,394.895,380.111z"/>
	<path fill="#CCCCD1" d="M375.27,107.941c2.187-0.098,4.319-1.111,5.781-2.963c2.671-3.388,2.09-8.296-1.294-10.967
		c-35.205-27.766-77.419-42.962-122.09-43.949c-4.315-0.093-7.883,3.322-7.98,7.634c-0.093,4.312,3.326,7.883,7.638,7.98
		c41.251,0.912,80.241,14.951,112.76,40.596C371.616,107.481,373.46,108.023,375.27,107.941z"/>
	<path fill="#CCCCD1" d="M261.535,444.037l-0.152,0.008c-41.243,1.88-81.061-9.435-115.149-32.713
		c-3.563-2.429-8.421-1.517-10.854,2.047c-2.433,3.559-1.517,8.421,2.047,10.85c36.904,25.205,80.016,37.454,124.667,35.419
		l0.151-0.008c4.309-0.194,7.642-3.848,7.446-8.155C269.492,447.176,265.843,443.843,261.535,444.037z"/>
</g>
<path fill="#F29500" d="M291.773,171.271c-1.364,1.313-3.216,2.187-5.478,2.25c-0.3,0.012-0.601,0.023-0.893,0.023
	c-47.489,0.893-87.306-37.212-88.409-84.694c-1.166-50.226,40.335-90.545,89.376-88.795c2.206,0.063,4.031,0.904,5.372,2.199
	c3.501,3.33,3.72,9.661-1.041,12.932c-22.779,15.637-37.734,41.875-37.734,71.602c0,29.715,14.943,55.957,37.727,71.594
	C295.438,161.641,295.242,167.921,291.773,171.271z"/>
<path fill="#F29500" d="M511.596,254.935c0,43.22-31.59,79.049-72.927,85.669c-4.511,0.729-9.131,1.107-13.841,1.107
	c-47.926,0-86.771-38.851-86.771-86.776c0-47.93,38.846-86.775,86.771-86.775c4.71,0,9.33,0.375,13.841,1.104
	C480.006,175.886,511.596,211.715,511.596,254.935z"/>
<path fill="#F29500" d="M319.847,483.137c3.454,3.739,2.748,9.622-1.439,12.515c-10.39,7.186-22.436,12.164-35.441,14.253
	c-4.456,0.722-9.029,1.084-13.685,1.096c-47.489,0.074-85.887-37.399-86.896-84.881c-1.041-48.791,38.203-88.678,86.752-88.678
	c4.718,0,9.35,0.374,13.86,1.104c13.067,2.094,25.153,7.111,35.578,14.358c4.113,2.861,4.675,8.726,1.271,12.397
	c-14.32,15.474-23.076,36.176-23.076,58.912C296.771,446.966,305.527,467.663,319.847,483.137z"/>
<path fill="#F29500" d="M116.487,336.837c-4.771,1.677-9.727,2.937-14.838,3.767c-5.384,0.865-10.924,1.231-16.589,1.064
	c-44.842-1.365-81.609-37.287-83.941-82.102c-2.604-50.031,37.201-91.407,86.659-91.407c4.717,0,9.341,0.375,13.859,1.104
	c5.135,0.822,10.109,2.093,14.9,3.782c6.164,2.164,7.548,10.222,2.468,14.315c-19.719,15.911-32.339,40.273-32.339,67.575
	c0,27.298,12.62,51.677,32.339,67.575C124.109,326.623,122.67,334.67,116.487,336.837z"/>
<path fill="#FFB52D" d="M291.773,171.271c-37.544-8.819-66.159-42.273-67.096-82.421c-0.979-42.055,27.977-77.528,67.064-86.596
	c3.501,3.33,3.72,9.661-1.041,12.932c-22.779,15.637-37.734,41.875-37.734,71.602c0,29.715,14.943,55.957,37.727,71.594
	C295.438,161.641,295.242,167.921,291.773,171.271z"/>
<path fill="#FFB52D" d="M511.596,254.935c0,43.22-31.59,79.049-72.927,85.669c-41.35-6.62-72.928-42.461-72.928-85.669
	c0-43.212,31.578-79.048,72.928-85.672C480.006,175.886,511.596,211.715,511.596,254.935z"/>
<path fill="#FFB52D" d="M319.847,483.137c3.454,3.739,2.748,9.622-1.439,12.515c-10.39,7.186-22.436,12.164-35.441,14.253
	c-40.815-6.464-71.98-41.075-72.896-83.785c-0.936-44.063,30.975-80.861,72.928-87.574c13.067,2.094,25.153,7.111,35.578,14.358
	c4.113,2.861,4.675,8.726,1.271,12.397c-14.32,15.474-23.076,36.176-23.076,58.912C296.771,446.966,305.527,467.663,319.847,483.137
	z"/>
<path fill="#FFB52D" d="M116.487,336.837c-4.771,1.677-9.727,2.937-14.838,3.767c-39.681-6.391-70.709-39.98-72.846-81.037
	c-2.339-45.271,30.008-83.454,72.834-90.304c5.135,0.822,10.109,2.093,14.9,3.782c6.164,2.164,7.548,10.222,2.468,14.315
	c-19.719,15.911-32.339,40.273-32.339,67.575c0,27.298,12.62,51.677,32.339,67.575C124.109,326.623,122.67,334.67,116.487,336.837z"
	/>
</svg>
